<svg xmlns="http://www.w3.org/2000/svg" xmlns:xlink="http://www.w3.org/1999/xlink" viewBox="0 0 653 618.42"><defs><style>.cls-1{fill:url(#linear-gradient);}.cls-2{fill:url(#linear-gradient-2);}.cls-3{fill:url(#linear-gradient-3);}.cls-4{fill:url(#linear-gradient-4);}.cls-5{fill:url(#linear-gradient-5);}.cls-6{fill:url(#linear-gradient-6);}.cls-7{fill:url(#linear-gradient-7);}.cls-8{fill:url(#linear-gradient-8);}.cls-9{fill:url(#linear-gradient-9);}.cls-10{fill:url(#linear-gradient-10);}</style><linearGradient id="linear-gradient" x1="52.23" y1="104.12" x2="127.09" y2="157.45" gradientUnits="userSpaceOnUse"><stop offset="0" stop-color="#3b6dea"/><stop offset="0.97" stop-color="#1248b5"/></linearGradient><linearGradient id="linear-gradient-2" x1="16.51" y1="225.07" x2="88.3" y2="332.75" xlink:href="#linear-gradient"/><linearGradient id="linear-gradient-3" x1="23.45" y1="271.35" x2="24.26" y2="271.35" xlink:href="#linear-gradient"/><linearGradient id="linear-gradient-4" x1="256.7" y1="372.35" x2="353.1" y2="322.1" xlink:href="#linear-gradient"/><linearGradient id="linear-gradient-5" x1="158.97" y1="167.52" x2="515.71" y2="167.52" xlink:href="#linear-gradient"/><linearGradient id="linear-gradient-6" x1="342.68" y1="419.09" x2="124.24" y2="499.09" xlink:href="#linear-gradient"/><linearGradient id="linear-gradient-7" x1="579.07" y1="311.49" x2="500.64" y2="134.07" xlink:href="#linear-gradient"/><linearGradient id="linear-gradient-8" x1="467.35" y1="407.05" x2="632.49" y2="407.05" xlink:href="#linear-gradient"/><linearGradient id="linear-gradient-9" x1="573.46" y1="509.74" x2="460.65" y2="503.59" xlink:href="#linear-gradient"/><linearGradient id="linear-gradient-10" x1="24.26" y1="247.96" x2="158.97" y2="247.96" xlink:href="#linear-gradient"/></defs><g id="Camada_2" data-name="Camada 2"><g id="Layer_4" data-name="Layer 4"><g id="Logo"><path class="cls-1" d="M242.72,52.34A474.87,474.87,0,0,0,159,206.79c-60.68,20.5-113,50.84-134.71,64.3l-.52.22Z"/><path class="cls-2" d="M180.36,506.86,11.1,337.61a38,38,0,0,1,0-53.67L23.45,271.6l.81-.51c22.83-9.51,66.58-6,116.28,18C129.34,376.3,145.22,456.34,180.36,506.86Z"/><path class="cls-3" d="M23.74,271.31l.52-.22-.81.51Z"/><path class="cls-4" d="M383.93,229.46C325.19,170.72,235.42,181,159,206.79a460.94,460.94,0,0,0-18.43,82.34c29.84,14.43,61.84,36.27,92.71,67.16L235,358l-36.05-36a15.83,15.83,0,0,1,0-22.38l69.91-69.92a15.84,15.84,0,0,1,22.39,0l24.07,24.07a15.83,15.83,0,0,0,22.38,0l24.07-24.07a15.84,15.84,0,0,1,22.39,0l69.91,69.92a15.83,15.83,0,0,1,0,22.38l-69.91,69.91a15.82,15.82,0,0,1-22.39,0l-24.07-24.06a15.83,15.83,0,0,0-22.38,0l-24.07,24.06a15.81,15.81,0,0,1-16.24,3.8c65.83,58.07,131.09,94.76,192.35,83.38a472.25,472.25,0,0,0,44.32-144C474.49,313.14,432,277.54,383.93,229.46Z"/><path class="cls-5" d="M511.67,335c-37.18-21.9-79.66-57.5-127.74-105.58C325.19,170.72,235.42,181,159,206.79A474.87,474.87,0,0,1,242.72,52.34L288.5,6.56c14-14,38-4.09,38,15.74v102a13.82,13.82,0,0,0,23.59,9.77l44.14-44.14a38,38,0,0,1,53.66,0l23.66,23.65C507.83,164.28,523.86,246,511.67,335Z"/><path class="cls-6" d="M467.35,479.06A478,478,0,0,1,407,572.53L368.3,611.2c-15.42,15.42-41.8,4.5-41.8-17.32v-96a13.82,13.82,0,0,0-23.59-9.77L259.11,532a37.94,37.94,0,0,1-53.66,0l-25.09-25.09c-35.14-50.52-51-130.56-39.82-217.73,29.84,14.43,61.84,36.27,92.71,67.16C313.09,436.11,393.15,492.84,467.35,479.06Z"/><path class="cls-7" d="M641.9,337.61l-9.41,9.4c-31.33,22.11-71.37,17.17-120.82-12,12.19-89-3.84-170.76-40.12-221.45L641.9,283.94A38,38,0,0,1,641.9,337.61Z"/><path class="cls-8" d="M632.49,347l-89.21,89.21c-24.39,24.39-49.8,38-75.93,42.84a472.25,472.25,0,0,0,44.32-144C561.12,364.18,601.16,369.12,632.49,347Z"/><path class="cls-9" d="M543.28,436.22,407,572.53a478,478,0,0,0,60.38-93.47C493.48,474.22,518.89,460.61,543.28,436.22Z"/><path class="cls-10" d="M159,206.79a460.94,460.94,0,0,0-18.43,82.34c-49.7-24-93.45-27.55-116.28-18C46,257.63,98.29,227.29,159,206.79Z"/></g></g></g></svg>